Coordinates
version=1
nRows=10
nColumns=40
inDegrees=yes

Units are S.I. units (second, meters, Newtons, ...)
If the header above contains a line with 'inDegrees', this indicates whether rotational values are in degrees (yes) or radians (no).

endheader
time	pelvis_tilt	pelvis_list	pelvis_rotation	pelvis_tx	pelvis_ty	pelvis_tz	hip_flexion_r	hip_adduction_r	hip_rotation_r	knee_angle_r	knee_angle_r_beta	ankle_angle_r	subtalar_angle_r	mtp_angle_r	hip_flexion_l	hip_adduction_l	hip_rotation_l	knee_angle_l	knee_angle_l_beta	ankle_angle_l	subtalar_angle_l	mtp_angle_l	lumbar_extension	lumbar_bending	lumbar_rotation	arm_flex_r	arm_add_r	arm_rot_r	elbow_flex_r	pro_sup_r	wrist_flex_r	wrist_dev_r	arm_flex_l	arm_add_l	arm_rot_l	elbow_flex_l	pro_sup_l	wrist_flex_l	wrist_dev_l
      6.67500000	    -32.70325613	     -0.14917723	      4.22596320	     -0.44536345	      0.69962535	     -0.90770545	     83.96251051	    -14.50794563	      2.89278419	     92.89605430	      1.62134201	     40.78144921	      0.00000000	      0.00000000	     85.85459906	    -10.36988245	      2.90401666	     92.31868615	      1.61126503	     39.45650771	      0.00000000	      0.00000000	    -15.74683529	     -0.24624351	     -7.86648474	      5.38181003	    -42.88633779	     67.22749611	     76.81119153	     87.82569501	      0.00000000	      0.00000000	    -17.57625037	    -44.02283986	     43.49051067	     85.91211702	     87.88773223	      0.00000000	      0.00000000
      6.68000000	    -32.34305470	     -0.27547000	      3.72837393	     -0.44299718	      0.70520101	     -0.90677042	     82.91497130	    -13.87111668	      2.63608820	     91.99027890	      1.60553325	     40.34545315	      0.00000000	      0.00000000	     84.87644788	    -10.89162595	      2.97524569	     91.61332211	      1.59895411	     39.27345606	      0.00000000	      0.00000000	    -15.45074148	     -0.25286635	     -7.42122691	      5.60458108	    -42.50003091	     67.40654325	     76.00688445	     87.82858051	      0.00000000	      0.00000000	    -17.39010024	    -43.88798664	     43.58987925	     85.40515522	     87.88244578	      0.00000000	      0.00000000
      6.68500000	    -31.36962958	     -0.15226111	      4.04225863	     -0.43975534	      0.71201648	     -0.90781415	     81.14654888	    -14.31439652	      2.38775959	     91.22073066	      1.59210210	     40.17216544	      0.00000000	      0.00000000	     83.06596404	    -10.42635404	      2.85709983	     90.72366379	      1.58342664	     39.04519353	      0.00000000	      0.00000000	    -15.83637689	     -0.20588664	     -7.79788298	      5.88521771	    -42.30110430	     67.59037505	     75.51504681	     87.82586479	      0.00000000	      0.00000000	    -16.95625207	    -43.73802361	     43.86343661	     85.00442851	     87.88391837	      0.00000000	      0.00000000
      6.69000000	    -31.39570371	     -0.25403506	      3.79881721	     -0.43836774	      0.71682274	     -0.90742771	     80.59874945	    -13.93437066	      2.23306620	     90.32743946	      1.57651122	     39.93267976	      0.00000000	      0.00000000	     82.55612519	    -10.60983213	      2.92853429	     89.93809673	      1.56971591	     39.12744997	      0.00000000	      0.00000000	    -15.08832161	     -0.17637575	     -7.63957013	      6.08540612	    -42.20109264	     67.79014182	     75.32634618	     87.82991896	      0.00000000	      0.00000000	    -16.84448417	    -43.75855441	     44.05040655	     84.94632430	     87.88438121	      0.00000000	      0.00000000
      6.69500000	    -30.80569757	     -0.14792791	      4.02341632	     -0.43580309	      0.72318223	     -0.90833361	     79.27586155	    -14.26226630	      2.02912635	     89.44108479	      1.56104142	     39.51109127	      0.00000000	      0.00000000	     81.18984562	    -10.19107595	      2.84177076	     89.00861945	      1.55349347	     38.98926487	      0.00000000	      0.00000000	    -14.98372144	     -0.16658708	     -7.94210358	      6.51155980	    -42.04115780	     68.30552846	     74.80176210	     87.83435250	      0.00000000	      0.00000000	    -16.34482556	    -43.69409591	     44.54260385	     84.54393757	     87.88915048	      0.00000000	      0.00000000
      6.70000000	    -30.56327406	     -0.35828833	      3.60414714	     -0.43361677	      0.72876074	     -0.90746841	     78.33145310	    -13.62140318	      1.78920368	     88.46011491	      1.54392026	     39.13815568	      0.00000000	      0.00000000	     80.36795113	    -10.66870627	      2.97322190	     88.24568375	      1.54017773	     38.72441438	      0.00000000	      0.00000000	    -14.45371414	     -0.06138504	     -7.61887787	      6.81509457	    -41.79512301	     68.69133904	     74.36165632	     87.83818688	      0.00000000	      0.00000000	    -16.17462121	    -43.62436422	     44.81940755	     84.22057976	     87.88218962	      0.00000000	      0.00000000
      6.70500000	    -29.47460741	     -0.37049652	      3.73821701	     -0.42999797	      0.73627531	     -0.90797520	     76.34056149	    -13.80447803	      1.34619820	     87.52273898	      1.52755997	     38.74627249	      0.00000000	      0.00000000	     78.43883746	    -10.46321879	      2.99327924	     87.30179658	      1.52370379	     38.28537005	      0.00000000	      0.00000000	    -14.83531587	      0.07695674	     -7.86242825	      7.27436985	    -41.53519683	     69.15551713	     73.76638618	     87.83650828	      0.00000000	      0.00000000	    -15.69863289	    -43.48973463	     45.25193455	     83.71535989	     87.88064515	      0.00000000	      0.00000000
      6.71000000	    -29.16717781	     -0.64455272	      3.33327140	     -0.42777285	      0.74227468	     -0.90695851	     75.23252104	    -13.11498527	      1.04891858	     86.42511380	      1.50840279	     38.54806695	      0.00000000	      0.00000000	     77.52867147	    -10.99466430	      3.12308226	     86.39247491	      1.50783314	     38.13270954	      0.00000000	      0.00000000	    -14.31950449	      0.23574025	     -7.59547035	      7.84597838	    -41.32897188	     69.98889649	     73.36591705	     87.84720754	      0.00000000	      0.00000000	    -15.36485659	    -43.52166434	     45.82260796	     83.49999661	     87.89240454	      0.00000000	      0.00000000
      6.71500000	    -28.65463383	     -0.60955380	      3.65699770	     -0.42512277	      0.74895693	     -0.90802340	     73.94513633	    -13.47932002	      0.75981656	     85.44919680	      1.49136983	     38.04731741	      0.00000000	      0.00000000	     76.27036811	    -10.47192326	      3.20803912	     85.38744324	      1.49029202	     37.58075447	      0.00000000	      0.00000000	    -14.04423687	      0.35427277	     -8.11639918	      8.28064702	    -41.17987404	     70.47711058	     72.95053060	     87.84133195	      0.00000000	      0.00000000	    -14.98510261	    -43.42326261	     46.30965158	     83.08880715	     87.88165927	      0.00000000	      0.00000000
      6.72000000	    -27.39002391	     -0.82590755	      3.27991403	     -0.42127484	      0.75716377	     -0.90715896	     71.67391342	    -12.88477237	      0.33546171	     84.27692032	      1.47090974	     37.73444681	      0.00000000	      0.00000000	     74.16509057	    -11.04765372	      3.24930525	     84.44411354	      1.47382782	     37.42157391	      0.00000000	      0.00000000	    -14.51962793	      0.53997803	     -7.94171114	      9.28944364	    -40.88067350	     71.84104260	     72.35082581	     87.84475703	      0.00000000	      0.00000000	    -14.31431422	    -43.48826224	     47.25632313	     82.75076959	     87.88889823	      0.00000000	      0.00000000
